<svg xmlns="http://www.w3.org/2000/svg" xmlns:xlink="http://www.w3.org/1999/xlink" width="1000" zoomAndPan="magnify" viewBox="0 0 750 749.999995" height="1000" preserveAspectRatio="xMidYMid meet" version="1.0"><defs><g/><clipPath id="8674e1f691"><rect x="0" width="296" y="0" height="102"/></clipPath><clipPath id="6a19f1ac8f"><path d="M 274.328125 186.097656 L 475.328125 186.097656 L 475.328125 462.097656 L 274.328125 462.097656 Z M 274.328125 186.097656 " clip-rule="nonzero"/></clipPath><clipPath id="36deae8c74"><path d="M 274.328125 346 L 338 346 L 338 462.097656 L 274.328125 462.097656 Z M 274.328125 346 " clip-rule="nonzero"/></clipPath><clipPath id="a9f2193b26"><path d="M 274.328125 186.097656 L 475.328125 186.097656 L 475.328125 295 L 274.328125 295 Z M 274.328125 186.097656 " clip-rule="nonzero"/></clipPath></defs><g transform="matrix(1, 0, 0, 1, 230, 463)"><g clip-path="url(#8674e1f691)"><g fill="#ffffff" fill-opacity="1"><g transform="translate(2.133981, 80.680858)"><g><path d="M 21.984375 0.171875 L 19.375 0.078125 L 16.9375 -0.765625 L 15.84375 -2.609375 L 16 -4.21875 L 16.09375 -9.09375 L 15.921875 -10.875 L 16 -17.6875 L 16.171875 -19.375 L 15.921875 -31.9375 L 16.09375 -34.296875 L 16 -35.96875 L 16.09375 -37.828125 L 15.921875 -40.1875 L 16.09375 -42.890625 L 15.171875 -44.5625 L 13.5625 -45.40625 L 5.5625 -45.578125 L 3.875 -45.40625 L 2.359375 -46.25 L 1.59375 -47.765625 L 1.4375 -50.375 L 1.59375 -54.59375 L 1.515625 -56.28125 L 2.53125 -58.21875 L 4.125 -59.0625 L 10.03125 -58.71875 L 12.640625 -58.96875 L 17.609375 -58.71875 L 19.125 -59.0625 L 20.984375 -58.890625 L 22.75 -59.140625 L 24.34375 -59.0625 L 26.03125 -58.71875 L 32.859375 -59.0625 L 34.453125 -58.890625 L 36.234375 -59.140625 L 37.828125 -58.96875 L 43.046875 -58.96875 L 44.65625 -57.875 L 45.578125 -56.1875 L 45.5 -48.1875 L 44.484375 -46.34375 L 43.046875 -45.40625 L 41.53125 -45.5 L 39.765625 -45.25 L 36.65625 -45.65625 L 33.359375 -45.5 L 31.765625 -44.484375 L 31.09375 -41.953125 L 30.828125 -34.625 L 31.09375 -32.859375 L 30.921875 -19.296875 L 31.171875 -17.4375 L 31 -15.921875 L 31.09375 -12.546875 L 30.921875 -10.78125 L 31.171875 -7.578125 L 30.921875 -3.203125 L 30.078125 -0.84375 L 27.640625 0 Z M 21.984375 0.171875 "/></g></g></g><g fill="#ffffff" fill-opacity="1"><g transform="translate(56.053062, 80.680858)"><g><path d="M 3.03125 -25.78125 L 3.03125 -32.9375 L 3.796875 -34.546875 L 5.5625 -35.546875 L 7.15625 -35.71875 L 8.84375 -35.546875 L 18.625 -35.71875 L 20.21875 -35.390625 L 28.734375 -35.46875 L 30.421875 -34.546875 L 31 -32.6875 L 31.171875 -25.859375 L 30.15625 -24.09375 L 27.640625 -23.25 L 22.65625 -23.171875 L 20.984375 -23.421875 L 15.25 -23.421875 L 13.8125 -23.171875 L 10.453125 -23.421875 L 8.84375 -23.078125 L 7.078125 -23.25 L 5.3125 -23.171875 L 3.796875 -24.1875 Z M 3.03125 -25.78125 "/></g></g></g><g fill="#ffffff" fill-opacity="1"><g transform="translate(97.419081, 80.680858)"><g><path d="M 11.296875 0.25 L 9.765625 0.171875 L 7.15625 -0.671875 L 6.234375 -2.28125 L 6.3125 -17.859375 L 6.15625 -19.46875 L 6.234375 -41.28125 L 6.0625 -42.890625 L 6.40625 -46.25 L 6.3125 -56.453125 L 7.078125 -57.796875 L 8.84375 -58.71875 L 10.609375 -59.0625 L 12.125 -58.8125 L 13.984375 -58.71875 L 19.203125 -59.0625 L 20.890625 -58.8125 L 26.03125 -58.71875 L 27.890625 -58.96875 L 30.578125 -59.0625 L 33.109375 -58.96875 L 34.796875 -58.390625 L 36.484375 -58.390625 L 37.90625 -57.796875 L 41.28125 -56.78125 L 44.0625 -54.9375 L 47.859375 -51.640625 L 49.875 -48.859375 L 51.484375 -46 L 52.484375 -42.890625 L 52.734375 -41.03125 L 53.078125 -39.59375 L 52.90625 -32.6875 L 52.40625 -31.34375 L 52.15625 -29.484375 L 50.71875 -26.203125 L 48.953125 -23.5 L 47.859375 -22.234375 L 46.765625 -21.140625 L 45.578125 -19.796875 L 44.3125 -18.78125 L 36.3125 -15.59375 L 27.640625 -14.90625 L 25.859375 -15.25 L 24.015625 -15.078125 L 22.078125 -14.15625 L 21.3125 -12.640625 L 21.40625 -10.703125 L 21.234375 -9.09375 L 21.40625 -5.984375 L 21.3125 -4.125 L 21.40625 -2.4375 L 20.640625 -0.671875 L 18.875 0 L 16.9375 0.171875 L 15.421875 0.078125 Z M 23.921875 -28.5625 L 25.953125 -28.734375 L 30.25 -28.640625 L 32.859375 -28.984375 L 34.203125 -29.40625 L 35.546875 -30.421875 L 36.65625 -31.765625 L 37.40625 -33.109375 L 38 -34.625 L 38.171875 -36.90625 L 38 -39.265625 L 37.75 -40.78125 L 36.90625 -42.46875 L 35.8125 -43.5625 L 34.453125 -44.484375 L 32.765625 -45.25 L 24.015625 -45.5 L 22.234375 -44.65625 L 21.40625 -43.046875 L 21.40625 -39.59375 L 21.234375 -37.828125 L 21.484375 -31 L 22.234375 -29.578125 Z M 23.921875 -28.5625 "/></g></g></g><g fill="#ffffff" fill-opacity="1"><g transform="translate(159.678759, 80.680858)"><g><path d="M 33.78125 1.09375 L 28.734375 0.84375 L 21.5625 -1.265625 L 19.96875 -1.9375 L 14.234375 -4.96875 L 13.140625 -6.234375 L 10.78125 -8.515625 L 6.828125 -13.90625 L 5.984375 -15.421875 L 5.46875 -17.1875 L 4.21875 -20.046875 L 3.28125 -25.359375 L 3.625 -35.125 L 4.296875 -38.75 L 5.890625 -43.390625 L 6.65625 -44.828125 L 9.515625 -49.03125 L 11.796875 -51.5625 L 14.484375 -53.421875 L 15.671875 -54.421875 L 19.96875 -57.125 L 23.171875 -57.96875 L 24.6875 -58.640625 L 26.375 -59.140625 L 28.0625 -59.484375 L 33.953125 -59.8125 L 37.90625 -59.734375 L 48.953125 -56.28125 L 53.25 -53.578125 L 56.875 -50.296875 L 57.96875 -48.78125 L 58.96875 -47.765625 L 60.0625 -46.34375 L 60.65625 -44.828125 L 62.171875 -42.046875 L 62.59375 -40.109375 L 63.265625 -38.328125 L 63.953125 -35.21875 L 64.359375 -29.40625 L 63.953125 -23.5 L 63.609375 -21.65625 L 63.109375 -20.296875 L 62.84375 -18.625 L 62.265625 -17.015625 L 58.96875 -11.203125 L 57.875 -9.6875 L 51.984375 -4.046875 L 44.484375 -0.671875 L 41.28125 0.34375 Z M 31.421875 -13.734375 L 36.3125 -13.90625 L 37.90625 -14.328125 L 39.421875 -14.484375 L 40.78125 -15.25 L 42.296875 -15.921875 L 44.90625 -17.9375 L 45.921875 -19.46875 L 46.671875 -20.71875 L 47.59375 -21.984375 L 48.359375 -25.4375 L 48.859375 -29.65625 L 48.53125 -33.28125 L 47.9375 -34.796875 L 47.4375 -36.484375 L 46.765625 -38 L 44.828125 -40.859375 L 42.203125 -42.796875 L 37.75 -44.734375 L 33.703125 -44.984375 L 29.828125 -44.65625 L 28.0625 -44.234375 L 26.53125 -43.46875 L 24.09375 -41.78125 L 22.828125 -40.6875 L 21.734375 -39.34375 L 20.984375 -37.90625 L 19.96875 -36.734375 L 19.46875 -35.21875 L 18.875 -32.09375 L 18.78125 -29.578125 L 19.203125 -25.359375 L 20.8125 -20.640625 L 21.90625 -19.46875 L 22.75 -18.28125 L 25.359375 -16 L 28.21875 -14.484375 L 29.734375 -14.328125 Z M 31.421875 -13.734375 "/></g></g></g><g fill="#ffffff" fill-opacity="1"><g transform="translate(234.070232, 80.680858)"><g><path d="M 22.65625 0.765625 L 19.203125 0.171875 L 15.921875 -1.015625 L 14.234375 -1.515625 L 12.640625 -2.28125 L 11.453125 -3.53125 L 8.515625 -5.390625 L 7.40625 -6.65625 L 6.234375 -7.75 L 4.640625 -10.875 L 4.125 -12.390625 L 3.796875 -14.0625 L 3.53125 -15.75 L 4.21875 -17.53125 L 5.734375 -18.203125 L 12.21875 -18.53125 L 13.8125 -18.28125 L 15.328125 -18.453125 L 17.015625 -17.78125 L 19.796875 -14.75 L 21.234375 -13.8125 L 22.65625 -13.0625 L 26.953125 -12.640625 L 28.46875 -12.890625 L 31.09375 -13.0625 L 33.953125 -14.328125 L 35.046875 -15.59375 L 35.71875 -17.6875 L 35.21875 -19.796875 L 34.125 -20.8125 L 31.09375 -22.234375 L 17.859375 -23.765625 L 14.828125 -24.765625 L 9.09375 -27.890625 L 5.984375 -31.765625 L 4.640625 -34.71875 L 4.046875 -38.078125 L 3.953125 -40.6875 L 4.21875 -44.828125 L 5.734375 -49.453125 L 8.671875 -53.421875 L 12.71875 -56.1875 L 15.59375 -57.875 L 18.78125 -58.890625 L 20.296875 -59.140625 L 21.984375 -59.234375 L 23.84375 -59.734375 L 30.328125 -59.5625 L 33.609375 -58.890625 L 38.328125 -57.296875 L 43.890625 -53.421875 L 45.75 -50.890625 L 48.109375 -46.5 L 48.28125 -44.90625 L 48.609375 -43.296875 L 47.9375 -41.875 L 46.34375 -40.6875 L 44.828125 -40.859375 L 43.140625 -40.859375 L 40.859375 -41.03125 L 36.90625 -40.6875 L 35.046875 -41.78125 L 33.78125 -43.46875 L 32.359375 -44.65625 L 30.828125 -45.65625 L 29.3125 -46.078125 L 26.625 -46.421875 L 23.921875 -46.34375 L 22.40625 -46 L 21.0625 -45.25 L 19.796875 -44.3125 L 18.78125 -43.21875 L 18.359375 -40.953125 L 18.703125 -38.421875 L 19.96875 -37.234375 L 23.078125 -35.71875 L 27.546875 -34.796875 L 30 -34.796875 L 31.765625 -34.453125 L 33.453125 -34.375 L 35.125 -34.125 L 41.703125 -32.09375 L 43.21875 -31.171875 L 44.5625 -30.5 L 46.078125 -29.15625 L 48.28125 -26.625 L 49.203125 -25.28125 L 50.46875 -20.390625 L 50.640625 -17.6875 L 50.125 -13.484375 L 49.625 -12.046875 L 49.125 -10.53125 L 48.1875 -8.671875 L 47.34375 -7.5 L 44.90625 -4.96875 L 39.171875 -1.515625 L 37.578125 -0.765625 L 36.0625 -0.59375 L 34.375 0.078125 L 32.6875 0.34375 L 31 0.765625 L 29.3125 0.921875 Z M 22.65625 0.765625 "/></g></g></g></g></g><g clip-path="url(#6a19f1ac8f)"><path fill="#5d29eb" d="M 378.945312 186.101562 L 318.917969 186.101562 C 294.308594 186.101562 274.355469 206.054688 274.355469 230.664062 L 274.355469 462.378906 L 292.941406 462.378906 C 317.554688 462.378906 337.503906 442.425781 337.503906 417.816406 L 337.503906 245.304688 L 378.945312 245.304688 C 398.285156 245.304688 412.496094 260.695312 412.496094 280.824219 C 412.496094 300.953125 398.285156 316.347656 378.945312 316.347656 L 355.308594 316.347656 L 355.308594 360.597656 C 355.308594 361.578125 355.402344 362.550781 355.59375 363.515625 C 355.785156 364.476562 356.070312 365.414062 356.445312 366.320312 C 356.820312 367.226562 357.28125 368.085938 357.828125 368.902344 C 358.371094 369.71875 358.992188 370.476562 359.6875 371.167969 C 360.382812 371.863281 361.136719 372.484375 361.953125 373.027344 C 362.769531 373.574219 363.628906 374.035156 364.535156 374.410156 C 365.445312 374.785156 366.378906 375.070312 367.339844 375.261719 C 368.304688 375.453125 369.277344 375.546875 370.257812 375.546875 L 378.945312 375.546875 C 433.414062 375.546875 475.644531 333.316406 475.644531 280.824219 C 475.644531 228.332031 433.40625 186.101562 378.945312 186.101562 Z M 378.945312 186.101562 " fill-opacity="1" fill-rule="nonzero"/></g><g clip-path="url(#36deae8c74)"><path fill="#480af1" d="M 292.941406 462.378906 C 317.554688 462.378906 337.503906 442.425781 337.503906 417.816406 L 337.503906 346.289062 C 337.503906 386.316406 309.492188 400.785156 274.355469 400.785156 L 274.355469 462.378906 Z M 292.941406 462.378906 " fill-opacity="1" fill-rule="nonzero"/></g><g clip-path="url(#a9f2193b26)"><path fill="#7d54ed" d="M 378.945312 186.101562 L 318.917969 186.101562 C 294.308594 186.101562 274.355469 206.054688 274.355469 230.664062 L 274.355469 294.234375 C 279.246094 261.949219 310.941406 245.300781 337.503906 245.300781 L 378.945312 245.300781 C 447.917969 245.300781 475.644531 280.820312 475.644531 280.820312 C 475.644531 228.332031 433.40625 186.101562 378.945312 186.101562 Z M 378.945312 186.101562 " fill-opacity="1" fill-rule="nonzero"/></g><path fill="#480af1" d="M 412.496094 280.824219 C 412.496094 300.953125 398.285156 316.347656 378.945312 316.347656 L 355.308594 316.347656 L 355.308594 360.597656 C 355.308594 361.582031 355.402344 362.550781 355.59375 363.515625 C 355.785156 364.476562 356.070312 365.414062 356.445312 366.320312 C 356.820312 367.226562 357.28125 368.085938 357.828125 368.902344 C 358.371094 369.71875 358.992188 370.476562 359.6875 371.167969 C 360.378906 371.863281 361.136719 372.484375 361.953125 373.027344 C 362.769531 373.574219 363.628906 374.035156 364.535156 374.410156 C 365.445312 374.785156 366.378906 375.070312 367.339844 375.261719 C 368.304688 375.453125 369.277344 375.546875 370.257812 375.546875 C 407.390625 360.921875 412.496094 326.515625 412.496094 280.824219 Z M 412.496094 280.824219 " fill-opacity="1" fill-rule="nonzero"/></svg>